<svg xmlns="http://www.w3.org/2000/svg" xmlns:xlink="http://www.w3.org/1999/xlink" width="89" zoomAndPan="magnify" viewBox="0 0 66.75 30.000001" height="40" preserveAspectRatio="xMidYMid meet" version="1.0"><defs><clipPath id="7e82d3e080"><path d="M 0.957031 2.902344 L 24 2.902344 L 24 26.128906 L 0.957031 26.128906 Z M 0.957031 2.902344 " clip-rule="nonzero"/></clipPath></defs><path fill="#181c32" d="M 34.390625 21.160156 C 33.175781 21.160156 32.121094 20.890625 31.226562 20.347656 C 30.34375 19.804688 29.667969 19.078125 29.199219 18.175781 C 28.730469 17.257812 28.496094 16.253906 28.496094 15.15625 C 28.496094 13.996094 28.746094 12.957031 29.246094 12.042969 C 29.757812 11.128906 30.472656 10.414062 31.386719 9.902344 C 32.300781 9.382812 33.339844 9.121094 34.5 9.121094 C 35.023438 9.121094 35.507812 9.179688 35.953125 9.296875 C 36.410156 9.402344 36.789062 9.53125 37.085938 9.679688 C 37.386719 9.816406 37.582031 9.933594 37.679688 10.03125 L 36.894531 11.628906 C 36.246094 11.050781 35.402344 10.765625 34.355469 10.765625 C 33.621094 10.765625 32.957031 10.945312 32.359375 11.308594 C 31.765625 11.671875 31.296875 12.1875 30.957031 12.855469 C 30.617188 13.527344 30.445312 14.304688 30.445312 15.1875 C 30.445312 15.996094 30.59375 16.730469 30.890625 17.390625 C 31.199219 18.050781 31.648438 18.574219 32.234375 18.957031 C 32.820312 19.339844 33.515625 19.53125 34.324219 19.53125 C 35.261719 19.53125 36.167969 19.265625 37.039062 18.734375 L 37.566406 20.25 C 37.332031 20.460938 36.902344 20.671875 36.273438 20.871094 C 35.65625 21.0625 35.027344 21.160156 34.390625 21.160156 Z M 39.265625 13.71875 L 40.992188 13.71875 L 40.992188 15.15625 C 41.160156 14.667969 41.4375 14.273438 41.820312 13.976562 C 42.203125 13.675781 42.640625 13.527344 43.128906 13.527344 C 43.472656 13.527344 43.703125 13.558594 43.832031 13.625 L 43.59375 15.363281 C 43.496094 15.300781 43.289062 15.269531 42.96875 15.269531 C 42.46875 15.269531 42.011719 15.429688 41.597656 15.746094 C 41.191406 16.066406 40.992188 16.578125 40.992188 17.28125 L 40.992188 21.046875 L 39.265625 21.046875 Z M 48.292969 21.207031 C 47.632812 21.207031 47.023438 21.054688 46.457031 20.746094 C 45.902344 20.425781 45.457031 19.980469 45.117188 19.402344 C 44.785156 18.816406 44.621094 18.136719 44.621094 17.359375 C 44.621094 16.59375 44.765625 15.921875 45.050781 15.347656 C 45.351562 14.773438 45.769531 14.324219 46.3125 14.007812 C 46.855469 13.6875 47.496094 13.527344 48.230469 13.527344 C 48.65625 13.527344 49.054688 13.601562 49.425781 13.75 C 49.800781 13.898438 50.113281 14.085938 50.371094 14.308594 C 50.625 14.523438 50.796875 14.734375 50.878906 14.949219 L 50.914062 13.71875 L 52.558594 13.71875 L 52.558594 21.046875 L 50.929688 21.046875 L 50.898438 19.753906 C 50.714844 20.136719 50.386719 20.480469 49.90625 20.777344 C 49.425781 21.0625 48.890625 21.207031 48.292969 21.207031 Z M 48.582031 19.769531 C 49.1875 19.769531 49.699219 19.5625 50.113281 19.148438 C 50.527344 18.722656 50.738281 18.167969 50.738281 17.488281 L 50.738281 17.375 C 50.738281 16.917969 50.640625 16.507812 50.449219 16.144531 C 50.257812 15.785156 49.996094 15.503906 49.667969 15.300781 C 49.335938 15.097656 48.976562 14.996094 48.582031 14.996094 C 47.898438 14.996094 47.371094 15.21875 47 15.667969 C 46.628906 16.105469 46.441406 16.671875 46.441406 17.375 C 46.441406 18.089844 46.621094 18.667969 46.984375 19.117188 C 47.355469 19.550781 47.890625 19.769531 48.582031 19.769531 Z M 55.5625 15.09375 L 54.382812 15.09375 L 54.382812 13.71875 L 55.5625 13.71875 L 55.5625 12.136719 C 55.5625 11.179688 55.792969 10.441406 56.25 9.917969 C 56.71875 9.386719 57.398438 9.121094 58.292969 9.121094 C 58.65625 9.121094 59.066406 9.222656 59.523438 9.425781 L 59.1875 11.050781 C 59.113281 10.96875 58.996094 10.886719 58.835938 10.8125 C 58.6875 10.726562 58.523438 10.683594 58.339844 10.683594 C 57.628906 10.683594 57.265625 11.148438 57.253906 12.074219 L 57.253906 13.71875 L 58.980469 13.71875 L 58.980469 15.09375 L 57.253906 15.09375 L 57.253906 21.046875 L 55.5625 21.046875 Z M 61.300781 15.125 L 60.007812 15.125 L 60.007812 13.71875 L 61.300781 13.71875 L 61.300781 10.734375 L 63.039062 10.351562 L 63.039062 13.71875 L 64.734375 13.71875 L 64.734375 15.125 L 63.039062 15.125 L 63.039062 21.046875 L 61.300781 21.046875 Z M 61.300781 15.125 " fill-opacity="1" fill-rule="nonzero"/><path fill="#50cd89" d="M 9.300781 4.789062 C 11.324219 3.621094 13.8125 3.621094 15.835938 4.789062 L 19.359375 6.824219 C 21.378906 7.992188 22.625 10.148438 22.625 12.480469 L 22.625 16.550781 C 22.625 18.886719 21.378906 21.042969 19.359375 22.207031 L 15.835938 24.242188 C 13.8125 25.410156 11.324219 25.410156 9.300781 24.242188 L 5.777344 22.207031 C 3.757812 21.042969 2.511719 18.886719 2.511719 16.550781 L 2.511719 12.480469 C 2.511719 10.148438 3.757812 7.992188 5.777344 6.824219 Z M 9.300781 4.789062 " fill-opacity="1" fill-rule="nonzero"/><g clip-path="url(#7e82d3e080)"><path stroke-linecap="butt" transform="matrix(0.725806, 0, 0, 0.725806, 0.955644, 2.903228)" fill="none" stroke-linejoin="miter" d="M 17.428647 21.278991 C 18.305904 21.149824 19.140106 20.805379 19.850522 20.277949 C 20.049654 20.132636 20.0658 19.842011 19.89896 19.659025 C 19.737502 19.470657 19.452259 19.454511 19.253127 19.599824 C 18.671877 20.014234 18.004516 20.283331 17.299481 20.385588 C 16.443752 20.509373 15.571877 20.380206 14.786113 20.014234 C 14.005731 19.648261 13.343752 19.056248 12.891668 18.324303 C 12.439585 17.586977 12.213543 16.731248 12.235071 15.870136 C 12.261981 15.003643 12.541842 14.16406 13.036981 13.459025 C 13.53212 12.748609 14.22639 12.19965 15.0283 11.882116 C 15.83021 11.564581 16.712849 11.483852 17.557814 11.661456 C 18.257467 11.801386 18.908682 12.113539 19.457641 12.560241 C 19.651391 12.716317 19.936634 12.716317 20.114238 12.544095 C 20.291842 12.366491 20.291842 12.075866 20.098092 11.919789 C 19.419967 11.349303 18.612675 10.956421 17.7408 10.773435 C 16.718231 10.568921 15.66337 10.660414 14.69462 11.042532 C 13.72587 11.430032 12.89705 12.086629 12.299654 12.942359 C 11.702259 13.792706 11.368578 14.799129 11.336286 15.843227 C 11.303995 16.881942 11.578474 17.909893 12.12205 18.792532 C 12.671009 19.680553 13.462154 20.385588 14.403995 20.826907 C 15.345835 21.273609 16.395314 21.429685 17.428647 21.278991 Z M 17.428647 21.278991 " stroke="#ffffff" stroke-width="2" stroke-opacity="1" stroke-miterlimit="4"/></g></svg>